<?xml version="1.0" encoding="utf-8" standalone="no"?><!DOCTYPE svg PUBLIC "-//W3C//DTD SVG 20010904//EN" "http://www.w3.org/TR/2001/REC-SVG-20010904/DTD/svg10.dtd"><svg xmlns="http://www.w3.org/2000/svg" width="609" height="436" xmlns:xlink="http://www.w3.org/1999/xlink"><source><![CDATA[ .section { stroke: none; opacity: 0.2;} .section0 { fill: rgba(102, 102, 255, 0.490196);} .section2 { fill: rgb(255, 244, 0);} .section1, .section3 { fill: white; opacity: 0.2;} .sectionTitle0 { fill: rgb(51, 51, 51);} .sectionTitle1 { fill: rgb(51, 51, 51);} .sectionTitle2 { fill: rgb(51, 51, 51);} .sectionTitle { text-anchor: start; font-size: 11px;} .grid .tick { stroke: lightgrey; opacity: 0.3; shape-rendering: crispEdges;} .grid path { stroke-width: 0;} .today { fill: none; stroke: red; stroke-width: 2px;} .task { stroke-width: 2;} .taskText { text-anchor: middle; font-size: 11px;} .taskText0, .taskText1, .taskText2, .taskText3 { fill: white;} .task0, .task1, .task2, .task3 { fill: rgb(138, 144, 221); stroke: rgb(83, 79, 188);} .titleText { text-anchor: middle; font-size: 18px; fill: black;} 199401/011998200020022004200620082010201220142016原型     β        1.0      1.1      1.2      1.3      1.4      5.0      6.0      7.0      8.0      不可变       Synchronized      Unsynchronized     JDK版本StringStringBufferStringBuilderJava字符串 ]]></source><style type="text/css" title="mermaid-svg-internal-css"> .section { stroke: none; opacity: 0.2;} .section0 { fill: rgba(102, 102, 255, 0.490196);} .section2 { fill: rgb(255, 244, 0);} .section1, .section3 { fill: white; opacity: 0.2;} .sectionTitle0 { fill: rgb(51, 51, 51);} .sectionTitle1 { fill: rgb(51, 51, 51);} .sectionTitle2 { fill: rgb(51, 51, 51);} .sectionTitle { text-anchor: start; font-size: 11px;} .grid .tick { stroke: lightgrey; opacity: 0.3; shape-rendering: crispEdges;} .grid path { stroke-width: 0;} .today { fill: none; stroke: red; stroke-width: 2px;} .task { stroke-width: 2;} .taskText { text-anchor: middle; font-size: 11px;} .taskText0, .taskText1, .taskText2, .taskText3 { fill: white;} .task0, .task1, .task2, .task3 { fill: rgb(138, 144, 221); stroke: rgb(83, 79, 188);} .titleText { text-anchor: middle; font-size: 18px; fill: black;} </style><g></g><g class="grid" transform="translate(75, 386)"><g class="tick" transform="translate(28,0)" style="opacity: 1;"><line y2="-351" x2="0"></line><text dy="1em" y="3" x="0" fill="#000" stroke="none" font-size="10" style="text-anchor: middle;">1994</text></g><g class="tick" transform="translate(66,0)" style="opacity: 1;"><line y2="-351" x2="0"></line><text dy="1em" y="3" x="0" fill="#000" stroke="none" font-size="10" style="text-anchor: middle;">01/01</text></g><g class="tick" transform="translate(103,0)" style="opacity: 1;"><line y2="-351" x2="0"></line><text dy="1em" y="3" x="0" fill="#000" stroke="none" font-size="10" style="text-anchor: middle;">1998</text></g><g class="tick" transform="translate(141,0)" style="opacity: 1;"><line y2="-351" x2="0"></line><text dy="1em" y="3" x="0" fill="#000" stroke="none" font-size="10" style="text-anchor: middle;">2000</text></g><g class="tick" transform="translate(178,0)" style="opacity: 1;"><line y2="-351" x2="0"></line><text dy="1em" y="3" x="0" fill="#000" stroke="none" font-size="10" style="text-anchor: middle;">2002</text></g><g class="tick" transform="translate(215,0)" style="opacity: 1;"><line y2="-351" x2="0"></line><text dy="1em" y="3" x="0" fill="#000" stroke="none" font-size="10" style="text-anchor: middle;">2004</text></g><g class="tick" transform="translate(253,0)" style="opacity: 1;"><line y2="-351" x2="0"></line><text dy="1em" y="3" x="0" fill="#000" stroke="none" font-size="10" style="text-anchor: middle;">2006</text></g><g class="tick" transform="translate(290,0)" style="opacity: 1;"><line y2="-351" x2="0"></line><text dy="1em" y="3" x="0" fill="#000" stroke="none" font-size="10" style="text-anchor: middle;">2008</text></g><g class="tick" transform="translate(328,0)" style="opacity: 1;"><line y2="-351" x2="0"></line><text dy="1em" y="3" x="0" fill="#000" stroke="none" font-size="10" style="text-anchor: middle;">2010</text></g><g class="tick" transform="translate(365,0)" style="opacity: 1;"><line y2="-351" x2="0"></line><text dy="1em" y="3" x="0" fill="#000" stroke="none" font-size="10" style="text-anchor: middle;">2012</text></g><g class="tick" transform="translate(403,0)" style="opacity: 1;"><line y2="-351" x2="0"></line><text dy="1em" y="3" x="0" fill="#000" stroke="none" font-size="10" style="text-anchor: middle;">2014</text></g><g class="tick" transform="translate(440,0)" style="opacity: 1;"><line y2="-351" x2="0"></line><text dy="1em" y="3" x="0" fill="#000" stroke="none" font-size="10" style="text-anchor: middle;">2016</text></g><path class="domain" d="M0,0V0H459V0"></path></g><g><rect x="0" y="48" width="571.5" height="24" class="section section0"></rect><rect x="0" y="72" width="571.5" height="24" class="section section0"></rect><rect x="0" y="96" width="571.5" height="24" class="section section0"></rect><rect x="0" y="120" width="571.5" height="24" class="section section0"></rect><rect x="0" y="144" width="571.5" height="24" class="section section0"></rect><rect x="0" y="168" width="571.5" height="24" class="section section0"></rect><rect x="0" y="192" width="571.5" height="24" class="section section0"></rect><rect x="0" y="216" width="571.5" height="24" class="section section0"></rect><rect x="0" y="240" width="571.5" height="24" class="section section0"></rect><rect x="0" y="264" width="571.5" height="24" class="section section0"></rect><rect x="0" y="288" width="571.5" height="24" class="section section0"></rect><rect x="0" y="312" width="571.5" height="24" class="section section1"></rect><rect x="0" y="336" width="571.5" height="24" class="section section2"></rect><rect x="0" y="360" width="571.5" height="24" class="section section0"></rect></g><g><rect rx="3" ry="3" x="75" y="50" width="50" height="20" class="task  task0"></rect><rect rx="3" ry="3" x="125" y="74" width="17" height="20" class="task  task0"></rect><rect rx="3" ry="3" x="142" y="98" width="20" height="20" class="task  task0"></rect><rect rx="3" ry="3" x="162" y="122" width="32" height="20" class="task  task0"></rect><rect rx="3" ry="3" x="194" y="146" width="28" height="20" class="task  task0"></rect><rect rx="3" ry="3" x="222" y="170" width="33" height="20" class="task  task0"></rect><rect rx="3" ry="3" x="255" y="194" width="49" height="20" class="task  task0"></rect><rect rx="3" ry="3" x="304" y="218" width="40" height="20" class="task  task0"></rect><rect rx="3" ry="3" x="344" y="242" width="87" height="20" class="task  task0"></rect><rect rx="3" ry="3" x="431" y="266" width="51" height="20" class="task  task0"></rect><rect rx="3" ry="3" x="482" y="290" width="52" height="20" class="task  task0"></rect><rect rx="3" ry="3" x="142" y="314" width="392" height="20" class="task  task1"></rect><rect rx="3" ry="3" x="142" y="338" width="392" height="20" class="task  task2"></rect><rect rx="3" ry="3" x="304" y="362" width="230" height="20" class="task  task0"></rect><text font-size="11" x="100" y="63.5" text-height="20" class="taskText taskText0 ">原型     </text><text font-size="11" x="133.5" y="87.5" text-height="20" class="taskText taskText0 ">β        </text><text font-size="11" x="152" y="111.5" text-height="20" class="taskText taskText0 ">1.0      </text><text font-size="11" x="178" y="135.5" text-height="20" class="taskText taskText0 ">1.1      </text><text font-size="11" x="208" y="159.5" text-height="20" class="taskText taskText0 ">1.2      </text><text font-size="11" x="238.5" y="183.5" text-height="20" class="taskText taskText0 ">1.3      </text><text font-size="11" x="279.5" y="207.5" text-height="20" class="taskText taskText0 ">1.4      </text><text font-size="11" x="324" y="231.5" text-height="20" class="taskText taskText0 ">5.0      </text><text font-size="11" x="387.5" y="255.5" text-height="20" class="taskText taskText0 ">6.0      </text><text font-size="11" x="456.5" y="279.5" text-height="20" class="taskText taskText0 ">7.0      </text><text font-size="11" x="508" y="303.5" text-height="20" class="taskText taskText0 ">8.0      </text><text font-size="11" x="338" y="327.5" text-height="20" class="taskText taskText1 ">不可变       </text><text font-size="11" x="338" y="351.5" text-height="20" class="taskText taskText2 ">Synchronized      </text><text font-size="11" x="419" y="375.5" text-height="20" class="taskText taskText0 ">Unsynchronized     </text></g><g><text x="10" y="182" class="sectionTitle sectionTitle0">JDK版本</text><text x="10" y="326" class="sectionTitle sectionTitle1">String</text><text x="10" y="350" class="sectionTitle sectionTitle2">StringBuffer</text><text x="10" y="374" class="sectionTitle sectionTitle0">StringBuilder</text></g><g class="today"><line x1="531" x2="531" y1="25" y2="411" class="today"></line></g><text x="304.5" y="25" class="titleText">Java字符串 </text></svg>